<?xml version="1.0" standalone="no"?>
<!DOCTYPE svg PUBLIC "-//W3C//DTD SVG 20010904//EN"
 "http://www.w3.org/TR/2001/REC-SVG-20010904/DTD/svg10.dtd">
<svg version="1.0" xmlns="http://www.w3.org/2000/svg"
 width="310.000000pt" height="310.000000pt" viewBox="0 0 310.000000 310.000000"
 preserveAspectRatio="xMidYMid meet">
<metadata>
Created by potrace 1.11, written by Peter Selinger 2001-2013
</metadata>
<g transform="translate(0.000000,310.000000) scale(0.100000,-0.100000)"
fill="#000000" stroke="none">
<path d="M1333 3069 c-156 -23 -367 -93 -503 -167 -408 -223 -682 -592 -782
-1056 -29 -133 -31 -443 -5 -575 68 -334 216 -605 460 -837 608 -581 1584
-554 2162 58 103 108 208 256 201 281 -3 13 1 21 13 24 22 6 88 141 131 267
65 195 93 443 71 636 -38 327 -153 596 -358 842 -221 266 -559 458 -908 518
-126 21 -362 26 -482 9z m512 -93 c308 -74 520 -187 726 -387 209 -203 348
-465 406 -763 22 -113 25 -406 5 -511 -55 -283 -174 -534 -347 -726 -30 -34
-128 -125 -175 -164 -109 -90 -271 -180 -421 -235 -285 -105 -646 -108 -949
-7 -229 76 -384 170 -551 337 -150 149 -221 247 -295 405 -20 44 -40 87 -44
95 -4 8 -15 42 -24 75 -10 33 -22 71 -27 85 -48 141 -58 463 -21 652 67 344
262 662 529 864 43 33 80 62 83 65 3 3 12 9 20 13 8 4 24 12 35 19 153 96 387
177 575 201 74 9 416 -4 475 -18z m-1735 -1176 c0 -5 -4 -10 -10 -10 -5 0 -10
5 -10 10 0 6 5 10 10 10 6 0 10 -4 10 -10z m2930 -124 c0 -8 -4 -17 -9 -21
-12 -7 -24 12 -16 25 9 15 25 12 25 -4z"/>
<path d="M1344 2895 c-74 -14 -234 -55 -234 -60 0 -3 62 -162 103 -265 30 -75
37 -83 76 -97 32 -12 39 -10 101 24 39 21 66 42 63 49 -6 17 16 29 30 15 8 -8
33 2 91 33 45 24 131 69 191 102 205 108 229 122 233 132 1 5 -57 24 -130 42
-118 30 -151 34 -293 36 -105 2 -184 -2 -231 -11z"/>
<path d="M1005 2792 c-34 -15 -78 -37 -98 -49 -21 -13 -41 -23 -44 -23 -6 0
-118 -79 -163 -114 -48 -38 -205 -203 -239 -251 l-34 -48 69 7 c38 4 92 11
119 16 28 5 84 14 125 20 442 61 460 65 460 95 0 8 6 15 13 18 9 3 9 9 -1 28
-12 24 -73 173 -113 277 -11 28 -23 52 -27 51 -4 0 -34 -12 -67 -27z m90 -282
c0 -7 -6 -15 -12 -17 -8 -3 -13 4 -13 17 0 13 5 20 13 18 6 -3 12 -11 12 -18z
m-365 0 c0 -5 -4 -10 -10 -10 -5 0 -10 5 -10 10 0 6 5 10 10 10 6 0 10 -4 10
-10z m266 -31 c10 -17 -13 -36 -27 -22 -12 12 -4 33 11 33 5 0 12 -5 16 -11z
m-346 -75 c0 -17 -26 -19 -36 -3 -7 12 15 31 28 23 4 -3 8 -12 8 -20z"/>
<path d="M1930 2749 c-63 -33 -151 -80 -195 -103 -44 -24 -143 -76 -220 -116
-135 -70 -180 -98 -171 -107 5 -5 76 -12 456 -43 364 -29 365 -29 375 -22 33
24 34 37 9 122 -25 85 -35 118 -69 240 -17 62 -36 90 -59 90 -6 0 -63 -28
-126 -61z"/>
<path d="M2132 2769 c3 -7 27 -92 54 -188 46 -163 50 -174 77 -183 15 -6 34
-23 42 -39 9 -16 25 -31 38 -34 18 -4 189 -40 340 -72 15 -3 27 -1 27 4 0 29
-166 223 -275 322 -88 80 -315 222 -303 190z"/>
<path d="M1350 2380 c0 -11 73 -50 94 -50 8 0 19 -7 23 -15 9 -16 98 -75 113
-75 6 0 10 7 10 15 0 8 7 15 15 15 17 0 20 -26 4 -35 -5 -4 10 -19 34 -33 24
-15 52 -32 63 -39 51 -32 222 -132 242 -142 15 -8 28 -9 41 -1 11 5 28 10 39
10 10 0 25 12 33 27 8 14 42 69 76 122 83 127 81 132 -78 147 -123 13 -296 27
-509 44 -74 6 -150 12 -167 15 -18 2 -33 0 -33 -5z"/>
<path d="M1095 2371 c-35 -5 -40 -9 -37 -30 3 -16 -1 -22 -10 -19 -7 3 -12 13
-12 22 2 20 -3 20 -124 0 -109 -17 -272 -40 -407 -55 -49 -6 -93 -14 -98 -18
-4 -4 93 -84 215 -176 123 -93 228 -173 233 -178 6 -4 61 -46 123 -93 99 -75
117 -85 143 -79 17 4 29 13 30 23 0 9 2 28 4 42 13 97 14 114 9 103 -9 -20
-36 -16 -32 5 2 9 12 17 23 17 18 0 22 13 37 105 10 58 22 149 29 203 15 136
4 148 -126 128z m-209 -102 c3 -6 1 -16 -5 -22 -9 -9 -14 -8 -21 3 -9 15 -4
30 10 30 5 0 12 -5 16 -11z m292 -96 c-4 -22 -22 -20 -26 1 -2 10 3 16 13 16
10 0 15 -7 13 -17z m-310 -176 c2 -10 -3 -17 -12 -17 -10 0 -16 9 -16 21 0 24
23 21 28 -4z m174 -22 c0 -5 -5 -11 -11 -13 -6 -2 -11 4 -11 13 0 9 5 15 11
13 6 -2 11 -8 11 -13z"/>
<path d="M1282 2346 c-18 -9 -23 -18 -21 -46 1 -19 -1 -42 -4 -50 -8 -22 -25
-126 -33 -196 -6 -58 -5 -61 17 -67 18 -5 20 -9 10 -21 -7 -8 -19 -12 -26 -10
-10 4 -16 -6 -20 -33 -4 -21 -9 -50 -11 -65 -4 -21 -2 -28 10 -28 23 0 20 -27
-4 -33 -15 -4 -20 -14 -20 -40 0 -20 5 -39 11 -43 9 -5 269 73 354 107 11 4
107 36 213 70 152 49 192 65 190 78 -2 9 -62 51 -133 94 -205 124 -503 297
-507 296 -1 -1 -13 -7 -26 -13z m120 -191 c0 -5 -5 -11 -11 -13 -6 -2 -11 4
-11 13 0 9 5 15 11 13 6 -2 11 -8 11 -13z m-4 -53 c2 -7 -3 -12 -12 -12 -9 0
-16 7 -16 16 0 17 22 14 28 -4z m58 -83 c10 -17 -13 -36 -27 -22 -12 12 -4 33
11 33 5 0 12 -5 16 -11z m144 -37 c0 -13 -12 -22 -22 -16 -10 6 -1 24 13 24 5
0 9 -4 9 -8z m-269 -25 c-13 -13 -26 -3 -16 12 3 6 11 8 17 5 6 -4 6 -10 -1
-17z m87 -38 c-2 -6 -8 -10 -13 -10 -5 0 -11 4 -13 10 -2 6 4 11 13 11 9 0 15
-5 13 -11z m107 -18 c7 -12 -12 -24 -25 -16 -11 7 -4 25 10 25 5 0 11 -4 15
-9z"/>
<path d="M2293 2275 c-3 -9 5 -39 17 -68 32 -77 190 -458 201 -487 8 -20 12
-21 19 -10 8 12 11 13 22 2 11 -11 10 -16 -3 -25 -15 -11 -10 -29 50 -177 40
-98 73 -166 81 -168 9 -1 31 16 50 40 19 23 66 78 104 122 l69 80 -6 100 c-9
149 -56 314 -139 482 l-20 41 -192 41 c-212 46 -244 49 -253 27z m142 -154 c7
-12 -12 -24 -25 -16 -11 7 -4 25 10 25 5 0 11 -4 15 -9z m200 -111 c0 -7 -6
-15 -12 -17 -8 -3 -13 4 -13 17 0 13 5 20 13 18 6 -3 12 -11 12 -18z m30 -335
c0 -11 -7 -21 -16 -23 -18 -3 -33 23 -23 39 10 17 39 5 39 -16z"/>
<path d="M2146 2136 c-48 -78 -74 -129 -70 -140 3 -8 7 -31 7 -50 2 -29 19
-52 123 -159 78 -81 128 -125 140 -124 13 1 20 -6 22 -22 5 -31 51 -77 74 -73
13 2 18 -3 18 -20 0 -16 26 -49 80 -103 44 -44 80 -77 80 -73 0 18 -61 138
-70 138 -6 0 -9 8 -6 18 5 15 -80 237 -163 427 -10 22 -42 100 -71 173 -40 98
-58 132 -71 132 -12 0 -44 -42 -93 -124z m122 -198 c-6 -18 -28 -21 -28 -4 0
9 7 16 16 16 9 0 14 -5 12 -12z"/>
<path d="M337 2152 c-70 -142 -127 -339 -127 -439 l0 -45 63 6 c34 3 152 8
262 11 319 9 405 15 405 31 0 18 27 18 37 0 6 -10 19 -12 47 -7 l39 6 -124 96
c-68 52 -173 133 -234 179 -60 47 -114 88 -120 92 -37 28 -79 61 -137 107
l-68 52 -43 -89z m90 -28 c8 -22 -18 -37 -36 -20 -7 8 -10 19 -7 25 10 16 36
13 43 -5z m123 -96 c0 -5 -9 -8 -20 -8 -22 0 -28 26 -7 33 12 4 27 -10 27 -25z
m-202 -136 c2 -7 -6 -12 -17 -12 -21 0 -27 11 -14 24 9 9 26 2 31 -12z m362
-102 c0 -11 -7 -20 -15 -20 -8 0 -15 9 -15 20 0 11 7 20 15 20 8 0 15 -9 15
-20z m168 -41 c-2 -6 -8 -10 -13 -10 -5 0 -11 4 -13 10 -2 6 4 11 13 11 9 0
15 -5 13 -11z"/>
<path d="M1740 1849 c-113 -38 -281 -94 -374 -125 -152 -51 -168 -58 -151 -70
14 -10 22 -11 32 -2 15 12 28 4 28 -17 0 -11 204 -145 220 -145 3 0 37 -20 77
-44 297 -180 342 -204 364 -194 25 12 27 31 44 338 6 102 13 210 16 241 6 52
4 56 -20 72 -14 9 -27 17 -28 16 -2 0 -95 -32 -208 -70z m-192 -97 c2 -7 -3
-12 -12 -12 -9 0 -16 7 -16 16 0 17 22 14 28 -4z m264 -27 c0 -5 -5 -11 -11
-13 -6 -2 -11 4 -11 13 0 9 5 15 11 13 6 -2 11 -8 11 -13z m-112 -71 c0 -9 -5
-14 -12 -12 -18 6 -21 28 -4 28 9 0 16 -7 16 -16z m-180 -55 c0 -5 -7 -9 -15
-9 -15 0 -20 12 -9 23 8 8 24 -1 24 -14z m308 -230 c-2 -6 -8 -10 -13 -10 -5
0 -11 4 -13 10 -2 6 4 11 13 11 9 0 15 -5 13 -11z"/>
<path d="M2033 1883 c-4 -10 -7 -71 -8 -135 0 -65 -3 -118 -6 -118 -3 0 -9
-81 -12 -181 -7 -179 -7 -182 16 -205 23 -25 71 -32 82 -13 4 6 13 8 21 5 8
-3 58 1 112 10 53 8 150 21 215 30 122 15 167 27 167 43 0 12 -559 581 -571
581 -6 0 -13 -8 -16 -17z m95 -224 c-2 -6 -8 -10 -13 -10 -5 0 -11 4 -13 10
-2 6 4 11 13 11 9 0 15 -5 13 -11z m9 -105 c8 -21 -13 -42 -28 -27 -13 13 -5
43 11 43 6 0 13 -7 17 -16z m221 -66 c-3 -7 -11 -13 -18 -13 -7 0 -15 6 -17
13 -3 7 4 12 17 12 13 0 20 -5 18 -12z m-36 -143 c0 -5 -5 -11 -11 -13 -6 -2
-11 4 -11 13 0 9 5 15 11 13 6 -2 11 -8 11 -13z"/>
<path d="M1027 1663 c-12 -12 -7 -22 8 -17 8 4 15 10 15 15 0 11 -14 12 -23 2z"/>
<path d="M417 1650 c-114 -4 -211 -11 -215 -15 -4 -3 13 -25 38 -47 25 -22 95
-87 155 -145 76 -72 111 -100 113 -89 4 17 42 23 42 6 0 -6 12 -15 26 -20 23
-9 35 -3 106 47 44 32 90 65 102 73 24 17 219 161 225 166 2 2 -4 10 -12 19
-17 17 -185 18 -580 5z m415 -55 c0 -5 -5 -11 -11 -13 -6 -2 -11 4 -11 13 0 9
5 15 11 13 6 -2 11 -8 11 -13z m-484 -43 c3 -9 -2 -13 -14 -10 -9 1 -19 9 -22
16 -3 9 2 13 14 10 9 -1 19 -9 22 -16z m427 -12 c10 -16 -16 -43 -28 -31 -11
11 -2 41 12 41 5 0 13 -5 16 -10z"/>
<path d="M1015 1592 c-231 -169 -395 -294 -395 -300 1 -18 20 -32 75 -52 203
-73 238 -83 257 -71 10 6 24 11 32 11 9 0 17 18 24 53 5 28 26 125 46 215 34
150 37 183 18 182 -4 -1 -30 -18 -57 -38z m-215 -273 c0 -5 -7 -9 -15 -9 -15
0 -20 12 -9 23 8 8 24 -1 24 -14z"/>
<path d="M1152 1611 c-18 -9 -34 -25 -37 -36 -2 -11 -14 -60 -25 -110 -12 -49
-28 -117 -36 -150 -10 -40 -11 -61 -4 -63 16 -6 12 -32 -5 -32 -21 0 -19 -40
4 -67 18 -21 19 -21 158 -8 77 7 160 16 184 19 39 6 153 15 419 33 41 3 78 8
83 12 7 7 -351 222 -383 230 -8 2 -17 7 -20 11 -7 9 -272 168 -290 173 -8 2
-30 -3 -48 -12z m216 -253 c-6 -18 -28 -21 -28 -4 0 9 7 16 16 16 9 0 14 -5
12 -12z m-160 -25 c6 -19 -28 -29 -39 -12 -5 8 -9 18 -9 22 0 13 43 3 48 -10z
m230 -132 c-5 -24 -38 -27 -38 -3 0 10 3 21 6 25 11 11 35 -5 32 -22z"/>
<path d="M190 1565 c0 -32 20 -212 31 -272 7 -38 17 -64 26 -67 11 -4 12 -10
5 -19 -7 -8 -2 -35 15 -87 42 -124 40 -124 119 -28 38 46 76 91 86 102 21 23
18 109 -4 134 -26 29 -260 247 -269 250 -5 2 -9 -4 -9 -13z m90 -210 c0 -8 -4
-15 -9 -15 -13 0 -22 16 -14 24 11 11 23 6 23 -9z"/>
<path d="M2861 1486 c-18 -18 -32 -40 -31 -47 5 -30 -1 -39 -22 -40 -13 0 -35
-15 -52 -36 -28 -32 -29 -37 -17 -69 11 -30 10 -39 -4 -60 -18 -28 -18 -33 17
-157 12 -42 26 -76 31 -74 14 4 54 109 82 212 22 80 47 305 33 305 -2 0 -19
-15 -37 -34z"/>
<path d="M2495 1249 c-38 -5 -128 -18 -200 -29 -71 -10 -156 -22 -188 -25 -42
-5 -60 -11 -64 -23 -3 -9 -12 -24 -20 -33 -12 -15 -8 -39 31 -190 24 -96 56
-219 70 -274 43 -164 46 -175 59 -175 10 0 359 579 376 624 2 5 17 30 32 54
22 35 26 49 18 63 -11 21 -11 21 -114 8z m53 -121 c-6 -18 -28 -21 -28 -4 0 9
7 16 16 16 9 0 14 -5 12 -12z"/>
<path d="M593 1212 c-22 -17 -22 -24 -29 -289 -4 -150 -5 -273 -2 -273 4 0
205 225 343 385 19 22 24 37 20 55 -8 32 -9 33 -75 58 -144 54 -222 82 -228
82 -4 0 -17 -8 -29 -18z"/>
<path d="M449 1122 c-41 -48 -76 -89 -80 -92 -3 -3 -13 -16 -22 -29 -14 -22
-15 -28 -1 -60 19 -45 135 -220 163 -245 l21 -19 0 70 c0 38 3 145 7 236 5
150 5 167 -10 167 -10 0 -14 5 -11 15 4 8 10 12 15 9 5 -3 9 2 9 10 0 36 -22
20 -91 -62z"/>
<path d="M2616 1160 c-14 -22 -26 -42 -26 -45 0 -2 -17 -33 -39 -68 -21 -35
-42 -74 -46 -87 -4 -13 -15 -32 -25 -43 -10 -10 -32 -44 -49 -75 -50 -90 -74
-132 -182 -314 -38 -64 -31 -78 40 -78 57 0 57 0 146 78 50 43 110 103 135
133 25 30 47 56 50 59 15 14 81 112 110 162 l32 58 -39 130 c-33 114 -41 130
-59 130 -14 0 -31 -14 -48 -40z"/>
<path d="M1725 1159 c-36 -5 -62 -15 -68 -25 -8 -14 -11 -14 -27 1 -17 15 -30
16 -122 6 -57 -6 -173 -15 -258 -21 -173 -13 -190 -16 -190 -34 0 -7 -8 -20
-18 -30 -20 -17 -19 -35 9 -194 10 -56 14 -64 45 -78 33 -16 33 -16 146 44 62
33 150 78 195 101 63 32 80 46 76 58 -5 13 -2 15 17 10 16 -4 65 16 179 75 86
45 160 85 166 89 11 11 -69 10 -150 -2z m-473 -204 c0 -5 -5 -11 -11 -13 -6
-2 -11 4 -11 13 0 9 5 15 11 13 6 -2 11 -8 11 -13z m-110 -160 c0 -5 -5 -11
-11 -13 -6 -2 -11 4 -11 13 0 9 5 15 11 13 6 -2 11 -8 11 -13z"/>
<path d="M1775 1072 c-71 -38 -204 -107 -295 -154 -91 -48 -207 -108 -257
-135 -51 -26 -93 -51 -93 -54 0 -3 109 -36 243 -74 133 -38 265 -75 292 -82
28 -8 73 -21 100 -28 50 -13 285 -81 318 -91 11 -3 17 0 17 10 0 8 9 21 20 29
21 14 20 15 -25 183 -24 93 -49 185 -55 204 -12 43 -60 231 -60 235 0 4 -60
25 -69 25 -3 -1 -64 -31 -136 -68z m65 -67 c0 -8 -7 -15 -15 -15 -8 0 -15 7
-15 15 0 8 7 15 15 15 8 0 15 -7 15 -15z m-342 -166 c-2 -6 -8 -10 -13 -10 -5
0 -11 4 -13 10 -2 6 4 11 13 11 9 0 15 -5 13 -11z m512 -40 c0 -5 -7 -9 -15
-9 -15 0 -20 12 -9 23 8 8 24 -1 24 -14z m-330 -19 c0 -5 -7 -10 -16 -10 -8 0
-12 5 -9 10 3 6 10 10 16 10 5 0 9 -4 9 -10z m-38 -105 c0 -5 -5 -11 -11 -13
-6 -2 -11 4 -11 13 0 9 5 15 11 13 6 -2 11 -8 11 -13z"/>
<path d="M809 878 c-83 -95 -169 -193 -191 -217 -21 -24 -38 -45 -36 -46 2 -2
44 7 93 20 232 62 315 88 315 100 0 7 10 25 22 40 20 25 20 31 10 89 -7 33
-15 85 -18 114 -5 36 -12 56 -25 62 -15 9 -41 -16 -170 -162z"/>
<path d="M1120 681 c0 -5 16 -28 35 -51 19 -23 66 -83 105 -134 38 -50 104
-136 147 -191 l79 -100 84 -3 c140 -5 328 28 466 81 42 17 64 32 77 55 18 30
18 32 0 56 -14 19 -50 33 -168 66 -82 23 -179 50 -215 60 -218 63 -271 76
-276 69 -8 -14 -34 -10 -34 4 0 8 -27 21 -62 31 -35 10 -99 29 -144 42 -90 27
-94 28 -94 15z"/>
<path d="M865 650 c-55 -16 -133 -36 -172 -46 -40 -9 -73 -22 -73 -28 0 -15
121 -113 205 -167 96 -62 282 -142 386 -168 92 -22 221 -43 227 -36 4 3 -37
58 -83 112 -5 6 -66 84 -135 172 -104 134 -129 161 -150 161 -15 0 -35 7 -46
15 -26 20 -43 18 -159 -15z"/>
<path d="M2228 400 c-14 -11 -37 -24 -52 -30 -24 -9 -37 -30 -18 -30 6 0 121
66 131 76 2 2 -5 4 -16 4 -11 0 -32 -9 -45 -20z"/>
</g>
</svg>
